<svg class="svg-icon" style="width: 1em; height: 1em;vertical-align: middle;fill: currentColor;overflow: hidden;" viewBox="0 0 1024 1024" version="1.1" xmlns="http://www.w3.org/2000/svg"><path d="M868.170323 311.527226v623.384774a90.376258 90.376258 0 0 1-91.466323 89.021935H246.99871a90.343226 90.343226 0 0 1-91.433291-89.021935V311.527226a90.178065 90.178065 0 0 1-89.187096-88.79071V89.187097A90.376258 90.376258 0 0 1 157.844645 0.165161h708.046452A90.376258 90.376258 0 0 1 957.324387 89.187097v133.549419a90.178065 90.178065 0 0 1-89.154064 88.79071z m-91.433291 623.384774a3.303226 3.303226 0 0 0 2.576516-0.891871l-0.198193-622.261677H246.99871l-2.345291 623.153548h532.18271z m91.466323-845.625806H157.811613l-2.34529 133.549419h710.391742a3.303226 3.303226 0 0 0 2.543483-0.924903zM467.290839 823.626323h-89.187097V423.044129h89.187097v400.582194z m178.176 0h-89.187097V423.044129h89.187097v400.582194z"  /></svg>